<svg xmlns="http://www.w3.org/2000/svg" viewBox="0 0 100 100">
  <rect width="100" height="100" rx="22" fill="#2563eb" />
  <path d="M30 32h40a6 6 0 0 1 6 6v8a8 8 0 0 1-8 8H32a8 8 0 0 1-8-8v-8a6 6 0 0 1 6-6z" fill="#ffffff"/>
  <circle cx="40" cy="42" r="4" fill="#2563eb"/>
  <circle cx="60" cy="42" r="4" fill="#2563eb"/>
  <path d="M25 58h50v18a6 6 0 0 1-6 6H31a6 6 0 0 1-6-6V58z" fill="#3b82f6"/>
  <path d="M40 68h20" stroke="#ffffff" stroke-width="4" stroke-linecap="round"/>
  <circle cx="50" cy="22" r="5" fill="#f59e0b"/>
  <line x1="50" y1="27" x2="50" y2="32" stroke="#f59e0b" stroke-width="4"/>
</svg>
